<svg xmlns="http://www.w3.org/2000/svg" xmlns:xlink="http://www.w3.org/1999/xlink" version="1.1" id="Layer_1" x="0px" y="0px" width="100px" height="100px" viewBox="0 0 100 100" enable-background="new 0 0 100 100" xml:space="preserve">
<path fill="#000000" d="M86.96,39.25c-5.108-1.881-11.896-2.917-19.112-2.917c-4.222,0-8.367,0.361-12.1,1.049  c-5.247-3.184-13.862-5.049-23.6-5.049c-7.216,0-14.003,1.035-19.111,2.916C9.051,36.717,2.363,40.198,2.363,47.015  c0,3.285,1.66,8.807,11.698,12.129c-0.257,0.938-0.344,1.809-0.344,2.555c0,2.926,1.387,8.346,10.679,11.768  c5.11,1.881,11.898,2.916,19.116,2.916c11.974,0,25.696-2.918,29.034-10.836c5.728-0.371,10.979-1.412,15.032-3.002  c8.314-3.26,10.06-8.068,10.06-11.529C97.637,48.089,96.25,42.67,86.96,39.25z M43.971,39.14c5.59,0,18.682,0,18.682,7.839  c0,1.104-0.896,2-2,2s-2-0.896-2-2c0-1.751-2.547-3.839-14.682-3.839c-1.104,0-2-0.896-2-2S42.866,39.14,43.971,39.14z   M69.303,61.682c0,0.006,0.002,0.012,0.002,0.018c0,7.123-12.897,10.684-25.794,10.684c-12.897,0-25.794-3.561-25.794-10.684  c0-1.955,0.978-3.643,2.656-5.061c-7.957-1.537-14.01-4.744-14.01-9.624c0-7.123,12.891-10.684,25.786-10.683  c2.413,0,4.823,0.128,7.151,0.378c-8.486,1.245-13.683,5.001-13.683,10.269c0,6.511,7.938,10.72,20.223,10.72  s20.223-4.209,20.223-10.72c0-2.531-1.213-4.708-3.4-6.431c1.71-0.13,3.443-0.215,5.186-0.215c12.896,0,25.789,3.561,25.789,10.683  C93.637,57.869,81.695,61.424,69.303,61.682z"/>
</svg>